<svg width="100" height="100" viewBox="0 0 100 100" fill="none" xmlns="http://www.w3.org/2000/svg">
<path d="M33.3333 25C33.3333 27.2101 32.4553 29.3298 30.8925 30.8926C29.3297 32.4554 27.2101 33.3333 25 33.3333C22.7899 33.3333 20.6702 32.4554 19.1074 30.8926C17.5446 29.3298 16.6667 27.2101 16.6667 25C16.6667 22.7899 17.5446 20.6703 19.1074 19.1074C20.6702 17.5446 22.7899 16.6667 25 16.6667C27.2101 16.6667 29.3297 17.5446 30.8925 19.1074C32.4553 20.6703 33.3333 22.7899 33.3333 25V25Z" fill="#AAAAAA"/>
<path d="M33.3333 50C33.3333 52.2101 32.4553 54.3298 30.8925 55.8926C29.3297 57.4554 27.2101 58.3333 25 58.3333C22.7899 58.3333 20.6702 57.4554 19.1074 55.8926C17.5446 54.3298 16.6667 52.2101 16.6667 50C16.6667 47.7899 17.5446 45.6703 19.1074 44.1075C20.6702 42.5446 22.7899 41.6667 25 41.6667C27.2101 41.6667 29.3297 42.5446 30.8925 44.1075C32.4553 45.6703 33.3333 47.7899 33.3333 50Z" fill="#AAAAAA"/>
<path d="M25 83.3333C27.2101 83.3333 29.3297 82.4554 30.8925 80.8926C32.4553 79.3298 33.3333 77.2101 33.3333 75C33.3333 72.7899 32.4553 70.6703 30.8925 69.1075C29.3297 67.5446 27.2101 66.6667 25 66.6667C22.7899 66.6667 20.6702 67.5446 19.1074 69.1075C17.5446 70.6703 16.6667 72.7899 16.6667 75C16.6667 77.2101 17.5446 79.3298 19.1074 80.8926C20.6702 82.4554 22.7899 83.3333 25 83.3333V83.3333Z" fill="#AAAAAA"/>
<path d="M58.3333 25C58.3333 27.2101 57.4553 29.3298 55.8925 30.8926C54.3297 32.4554 52.2101 33.3333 50 33.3333C47.7899 33.3333 45.6702 32.4554 44.1074 30.8926C42.5446 29.3298 41.6667 27.2101 41.6667 25C41.6667 22.7899 42.5446 20.6703 44.1074 19.1074C45.6702 17.5446 47.7899 16.6667 50 16.6667C52.2101 16.6667 54.3297 17.5446 55.8925 19.1074C57.4553 20.6703 58.3333 22.7899 58.3333 25V25Z" fill="#AAAAAA"/>
<path d="M50 58.3333C52.2101 58.3333 54.3297 57.4554 55.8925 55.8926C57.4553 54.3298 58.3333 52.2101 58.3333 50C58.3333 47.7899 57.4553 45.6703 55.8925 44.1075C54.3297 42.5446 52.2101 41.6667 50 41.6667C47.7899 41.6667 45.6702 42.5446 44.1074 44.1075C42.5446 45.6703 41.6667 47.7899 41.6667 50C41.6667 52.2101 42.5446 54.3298 44.1074 55.8926C45.6702 57.4554 47.7899 58.3333 50 58.3333Z" fill="#AAAAAA"/>
<path d="M58.3333 75C58.3333 77.2101 57.4553 79.3298 55.8925 80.8926C54.3297 82.4554 52.2101 83.3333 50 83.3333C47.7899 83.3333 45.6702 82.4554 44.1074 80.8926C42.5446 79.3298 41.6667 77.2101 41.6667 75C41.6667 72.7899 42.5446 70.6703 44.1074 69.1075C45.6702 67.5446 47.7899 66.6667 50 66.6667C52.2101 66.6667 54.3297 67.5446 55.8925 69.1075C57.4553 70.6703 58.3333 72.7899 58.3333 75V75Z" fill="#AAAAAA"/>
<path d="M75 33.3333C77.2101 33.3333 79.3297 32.4554 80.8925 30.8926C82.4553 29.3298 83.3333 27.2101 83.3333 25C83.3333 22.7899 82.4553 20.6703 80.8925 19.1074C79.3297 17.5446 77.2101 16.6667 75 16.6667C72.7898 16.6667 70.6702 17.5446 69.1074 19.1074C67.5446 20.6703 66.6666 22.7899 66.6666 25C66.6666 27.2101 67.5446 29.3298 69.1074 30.8926C70.6702 32.4554 72.7898 33.3333 75 33.3333V33.3333Z" fill="#AAAAAA"/>
<path d="M83.3333 50C83.3333 52.2101 82.4553 54.3298 80.8925 55.8926C79.3297 57.4554 77.2101 58.3333 75 58.3333C72.7898 58.3333 70.6702 57.4554 69.1074 55.8926C67.5446 54.3298 66.6666 52.2101 66.6666 50C66.6666 47.7899 67.5446 45.6703 69.1074 44.1075C70.6702 42.5446 72.7898 41.6667 75 41.6667C77.2101 41.6667 79.3297 42.5446 80.8925 44.1075C82.4553 45.6703 83.3333 47.7899 83.3333 50Z" fill="#AAAAAA"/>
<path d="M75 83.3333C77.2101 83.3333 79.3297 82.4554 80.8925 80.8926C82.4553 79.3298 83.3333 77.2101 83.3333 75C83.3333 72.7899 82.4553 70.6703 80.8925 69.1075C79.3297 67.5446 77.2101 66.6667 75 66.6667C72.7898 66.6667 70.6702 67.5446 69.1074 69.1075C67.5446 70.6703 66.6666 72.7899 66.6666 75C66.6666 77.2101 67.5446 79.3298 69.1074 80.8926C70.6702 82.4554 72.7898 83.3333 75 83.3333V83.3333Z" fill="#AAAAAA"/>
</svg>
